<svg width="24" height="24" viewBox="0 0 24 24" fill="none" xmlns="http://www.w3.org/2000/svg">
<path d="M22.4635 10.1809L22.462 10.1794L13.2884 1.53097C12.941 1.18851 12.4791 1 11.9878 1C11.4965 1 11.0346 1.18851 10.687 1.53097L1.54239 10.1753C1.53964 10.178 1.53674 10.1809 1.53415 10.1836C0.820757 10.8906 0.821976 12.0377 1.53766 12.7429C1.86463 13.0653 2.29633 13.2518 2.75806 13.2715C2.77696 13.2733 2.79586 13.2742 2.81491 13.2742H3.1396V19.8788C3.1396 21.0485 4.10543 22 5.29244 22H9.01376C9.33708 22 9.59911 21.7416 9.59911 21.4232V16.095C9.59911 15.5614 10.0398 15.1273 10.5814 15.1273H13.3227C13.8643 15.1273 14.3049 15.5614 14.3049 16.095V21.4232C14.3049 21.7416 14.5669 22 14.8902 22H18.7076C19.8948 22 20.8605 21.0485 20.8605 19.8788V13.2742H21.1617C21.6528 13.2742 22.1147 13.0857 22.4624 12.7431C23.1789 12.0368 23.1792 10.8876 22.4635 10.1809ZM21.6345 11.9275C21.5082 12.052 21.3402 12.1206 21.1617 12.1206H20.2751C19.9518 12.1206 19.6898 12.3788 19.6898 12.6974V19.8788C19.6898 20.4123 19.2492 20.8464 18.7076 20.8464H15.4756V16.095C15.4756 14.9254 14.5099 13.9737 13.3227 13.9737H10.5814C9.39424 13.9737 8.42841 14.9254 8.42841 16.095V20.8464H5.29244C4.75099 20.8464 4.3103 20.4123 4.3103 19.8788V12.6974C4.3103 12.3788 4.04827 12.1206 3.72495 12.1206H2.85363C2.84449 12.12 2.83549 12.1196 2.82619 12.1194C2.65181 12.1164 2.48825 12.0482 2.36569 11.9273C2.10502 11.6705 2.10502 11.2524 2.36569 10.9954L2.36645 10.9947L11.5151 2.34658C11.6413 2.22206 11.8091 2.15357 11.9878 2.15357C12.1663 2.15357 12.3341 2.22206 12.4605 2.34658L21.6319 10.993C21.6332 10.9942 21.6345 10.9954 21.6358 10.9966C21.8951 11.2539 21.8946 11.6711 21.6345 11.9275Z" fill="#C3D6EC"/>
</svg>
