<svg width="24" height="24" viewBox="0 0 24 24" fill="none" xmlns="http://www.w3.org/2000/svg">
<path fill-rule="evenodd" clip-rule="evenodd" d="M3 2.5036C3 1.67318 3.68831 1 4.53738 1H14.903L20.8193 6.85398V21.4964C20.8193 22.3268 20.131 23 19.2819 23H4.53738C3.68831 23 3 22.3268 3 21.4964V2.5036ZM4.53738 2.42446C4.4927 2.42446 4.45647 2.45989 4.45647 2.5036V21.4964C4.45647 21.5401 4.4927 21.5755 4.53738 21.5755H19.2819C19.3266 21.5755 19.3628 21.5401 19.3628 21.4964V7.8588H15.408C14.559 7.8588 13.8707 7.18562 13.8707 6.35521V2.42446H4.53738ZM15.3271 3.44596L18.3473 6.43434H15.408C15.3634 6.43434 15.3271 6.39891 15.3271 6.35521V3.44596Z" fill="#C3D6EC"/>
<path fill-rule="evenodd" clip-rule="evenodd" d="M11.9096 9C12.2744 9 12.5702 9.27931 12.5702 9.62385V14.5835L14.4464 12.7783C14.702 12.5325 15.1202 12.5288 15.3805 12.7702C15.6408 13.0115 15.6447 13.4065 15.3891 13.6524L11.9096 17L8.43013 13.6524C8.17458 13.4065 8.17844 13.0115 8.43877 12.7702C8.69909 12.5288 9.11729 12.5325 9.37285 12.7783L11.2491 14.5835V9.62385C11.2491 9.27931 11.5448 9 11.9096 9Z" fill="#C3D6EC"/>
</svg>
