<svg width="24" height="24" viewBox="0 0 24 24" fill="none" xmlns="http://www.w3.org/2000/svg">
<path fill-rule="evenodd" clip-rule="evenodd" d="M3.91003 2.04999V22.22L20.36 21.94L19.84 7.02999L18.1 4.69999L14.43 1.60999L3.91003 2.04999Z" fill="white"/>
<path fill-rule="evenodd" clip-rule="evenodd" d="M3 2.50001C3.00261 2.3004 3.04451 2.10325 3.12332 1.91983C3.20213 1.73642 3.3163 1.57032 3.4593 1.43103C3.60231 1.29174 3.77135 1.18198 3.95678 1.10803C4.14221 1.03407 4.34039 0.997367 4.54 1.00001H14.91L20.82 6.85001V21.5C20.8174 21.6996 20.7755 21.8968 20.6967 22.0802C20.6179 22.2636 20.5037 22.4297 20.3607 22.569C20.2177 22.7083 20.0487 22.818 19.8632 22.892C19.6778 22.966 19.4796 23.0027 19.28 23H4.54C4.34039 23.0027 4.14221 22.966 3.95678 22.892C3.77135 22.818 3.60231 22.7083 3.4593 22.569C3.3163 22.4297 3.20213 22.2636 3.12332 22.0802C3.04451 21.8968 3.00261 21.6996 3 21.5V2.50001ZM4.54 2.42001C4.51878 2.42001 4.49844 2.42844 4.48343 2.44344C4.46843 2.45845 4.46 2.47879 4.46 2.50001V21.5C4.46 21.5212 4.46843 21.5416 4.48343 21.5566C4.49844 21.5716 4.51878 21.58 4.54 21.58H19.28C19.3022 21.5801 19.3237 21.5721 19.3404 21.5573C19.357 21.5425 19.3675 21.5221 19.37 21.5V7.86001H15.37C15.1704 7.86266 14.9722 7.82595 14.7868 7.752C14.6014 7.67804 14.4323 7.56829 14.2893 7.429C14.1463 7.2897 14.0321 7.12361 13.9533 6.94019C13.8745 6.75677 13.8326 6.55963 13.83 6.36001V2.42001H4.54ZM15.33 3.42001L18.33 6.42001H15.39C15.3704 6.42017 15.3514 6.41312 15.3367 6.40022C15.3219 6.38732 15.3125 6.36945 15.31 6.35001L15.33 3.42001Z" fill="white"/>
<path fill-rule="evenodd" clip-rule="evenodd" d="M11.91 8.99999C11.994 8.99732 12.0778 9.01125 12.1565 9.04097C12.2352 9.07069 12.3072 9.11562 12.3685 9.1732C12.4298 9.23078 12.4791 9.29988 12.5137 9.37654C12.5483 9.4532 12.5674 9.53593 12.57 9.61999V14.62L14.45 12.82C14.576 12.7019 14.7423 12.6361 14.915 12.6361C15.0877 12.6361 15.254 12.7019 15.38 12.82C15.4419 12.8753 15.4915 12.9431 15.5254 13.019C15.5594 13.0948 15.5769 13.1769 15.5769 13.26C15.5769 13.3431 15.5594 13.4252 15.5254 13.501C15.4915 13.5768 15.4419 13.6446 15.38 13.7L11.91 17L8.42999 13.65C8.36941 13.5938 8.32108 13.5258 8.28803 13.45C8.25498 13.3743 8.23792 13.2926 8.23792 13.21C8.23792 13.1274 8.25498 13.0457 8.28803 12.9699C8.32108 12.8942 8.36941 12.8262 8.42999 12.77C8.55767 12.6512 8.7256 12.5852 8.89999 12.5852C9.07439 12.5852 9.24231 12.6512 9.37 12.77L11.24 14.57V9.56999C11.2599 9.4083 11.3398 9.26 11.4639 9.15443C11.588 9.04887 11.7472 8.99375 11.91 8.99999Z" fill="#4A4895"/>
<path fill-rule="evenodd" clip-rule="evenodd" d="M13.85 6.36V1H14.91L15.33 1.42V6.26C15.33 6.37 15.33 6.43 15.48 6.43H20.37L20.82 6.86V7.86H15.5C15.2914 7.87792 15.0813 7.85255 14.883 7.78548C14.6847 7.71842 14.5024 7.61111 14.3474 7.47028C14.1925 7.32945 14.0684 7.15814 13.9828 6.96709C13.8972 6.77603 13.852 6.56935 13.85 6.36Z" fill="#4A4895"/>
</svg>
