<svg width="24" height="24" viewBox="0 0 24 24" fill="none" xmlns="http://www.w3.org/2000/svg">
<path d="M15 1H1V23H23V11H15V1Z" fill="white"/>
<path fill-rule="evenodd" clip-rule="evenodd" d="M8.00002 16.15C8.46947 16.15 8.85002 16.5306 8.85002 17V23C8.85002 23 8.46947 23 8.00002 23C7.53058 23 7.15002 23 7.15002 23V17C7.15002 16.5306 7.53058 16.15 8.00002 16.15Z" fill="#4A4895"/>
<path fill-rule="evenodd" clip-rule="evenodd" d="M5.15002 9.99998C5.15002 9.53053 5.53058 9.14998 6.00002 9.14998L10 9.14998C10.4695 9.14998 10.85 9.53053 10.85 9.99998C10.85 10.4694 10.4695 10.85 10 10.85L6.00002 10.85C5.53058 10.85 5.15002 10.4694 5.15002 9.99998Z" fill="#4A4895"/>
<path fill-rule="evenodd" clip-rule="evenodd" d="M5.15002 5.99998C5.15002 5.53053 5.53058 5.14998 6.00002 5.14998L10 5.14998C10.4695 5.14998 10.85 5.53053 10.85 5.99998C10.85 6.46942 10.4695 6.84998 10 6.84998L6.00002 6.84998C5.53058 6.84998 5.15002 6.46942 5.15002 5.99998Z" fill="#4A4895"/>
<g clip-path="url(#clip0_815_417)">
<path d="M16.66 11H15V23H16.66V11Z" fill="#4A4895"/>
</g>
<defs>
<clipPath id="clip0_815_417">
<rect width="1.66" height="12" fill="white" transform="translate(15 11)"/>
</clipPath>
</defs>
</svg>
