<svg width="24" height="24" viewBox="0 0 24 24" fill="none" xmlns="http://www.w3.org/2000/svg">
<path d="M21.2812 4.58531V3.57812C21.2812 2.15655 20.1247 1 18.7031 1C17.9161 1 4.36235 1 3.57812 1C2.15655 1 1 2.15655 1 3.57812V20.4219C1 21.8435 2.15655 23 3.57812 23H20.4219C21.8435 23 23 21.8435 23 20.4219V7.01562C23 5.8953 22.2815 4.94011 21.2812 4.58531ZM7.70312 2.71875H18.7031C19.177 2.71875 19.5625 3.10427 19.5625 3.57812V4.4375H8.5625C8.08864 4.4375 7.70312 4.05198 7.70312 3.57812V2.71875ZM21.2812 20.4219C21.2812 20.8957 20.8957 21.2812 20.4219 21.2812H3.57812C3.10427 21.2812 2.71875 20.8957 2.71875 20.4219V3.57812C2.71875 3.10427 3.10427 2.71875 3.57812 2.71875H5.98438V3.57812C5.98438 4.9997 7.14092 6.15625 8.5625 6.15625H20.4219C20.8957 6.15625 21.2812 6.54177 21.2812 7.01562V20.4219Z" fill="#C3D6EC"/>
<path d="M15.5835 11.3506L16.8614 10.0727L15.646 8.85739L14.3682 10.1352C13.9173 9.83631 13.4072 9.61992 12.8594 9.50829V7.70312H11.1406V9.50829C10.5928 9.61992 10.0827 9.83631 9.63182 10.1352L8.35397 8.85739L7.13864 10.0727L8.41649 11.3506C8.11756 11.8014 7.90117 12.3115 7.78954 12.8594H5.98438V14.5781H7.78954C7.90117 15.126 8.11756 15.6361 8.41649 16.0869L7.13864 17.3648L8.35397 18.5801L9.63182 17.3023C10.0827 17.6012 10.5928 17.8176 11.1406 17.9292V19.7344H12.8594V17.9292C13.4072 17.8176 13.9173 17.6012 14.3682 17.3023L15.646 18.5801L16.8614 17.3648L15.5835 16.0869C15.8824 15.6361 16.0988 15.126 16.2105 14.5781H18.0156V12.8594H16.2105C16.0988 12.3115 15.8824 11.8014 15.5835 11.3506ZM12 16.2969C10.5784 16.2969 9.42188 15.1403 9.42188 13.7188C9.42188 12.2972 10.5784 11.1406 12 11.1406C13.4216 11.1406 14.5781 12.2972 14.5781 13.7188C14.5781 15.1403 13.4216 16.2969 12 16.2969Z" fill="#C3D6EC"/>
<path d="M12 14.5781C12.4746 14.5781 12.8594 14.1934 12.8594 13.7188C12.8594 13.2441 12.4746 12.8594 12 12.8594C11.5254 12.8594 11.1406 13.2441 11.1406 13.7188C11.1406 14.1934 11.5254 14.5781 12 14.5781Z" fill="#C3D6EC"/>
</svg>
