<svg width="24" height="24" viewBox="0 0 24 24" fill="none" xmlns="http://www.w3.org/2000/svg">
<path d="M21.28 4.59V3.59C21.28 2.90482 21.0085 2.24755 20.5249 1.76212C20.0414 1.27669 19.3852 1.00265 18.7 1L3.57 1C2.88748 1.00265 2.23381 1.27563 1.75213 1.75919C1.27044 2.24275 0.999995 2.89747 1 3.58V20.42C0.999995 21.1025 1.27044 21.7573 1.75213 22.2408C2.23381 22.7244 2.88748 22.9974 3.57 23H20.42C21.1034 22.9974 21.7582 22.7247 22.2414 22.2414C22.7247 21.7582 22.9974 21.1034 23 20.42V7C22.9954 6.47031 22.8278 5.95488 22.5201 5.52371C22.2124 5.09255 21.7794 4.76655 21.28 4.59ZM19.5 3.59V4.45H8.5C8.27272 4.4474 8.05548 4.35596 7.89476 4.19524C7.73404 4.03452 7.6426 3.81728 7.64 3.59V2.72H18.64C18.7533 2.71866 18.8657 2.73999 18.9707 2.78273C19.0756 2.82548 19.171 2.88877 19.2511 2.9689C19.3312 3.04903 19.3945 3.14437 19.4373 3.24931C19.48 3.35426 19.5013 3.46669 19.5 3.58V3.59Z" fill="white"/>
<path d="M15.5991 11.3506L16.877 10.0727L15.6617 8.85739L14.3838 10.1352C13.9329 9.83631 13.4229 9.61992 12.875 9.50829V7.70312H11.1562V9.50829C10.6084 9.61992 10.0983 9.83631 9.64745 10.1352L8.3696 8.85739L7.15427 10.0727L8.43212 11.3506C8.13318 11.8014 7.91679 12.3115 7.80516 12.8594H6V14.5781H7.80516C7.91679 15.126 8.13318 15.6361 8.43212 16.0869L7.15427 17.3648L8.3696 18.5801L9.64745 17.3023C10.0983 17.6012 10.6084 17.8176 11.1562 17.9292V19.7344H12.875V17.9292C13.4228 17.8176 13.9329 17.6012 14.3838 17.3023L15.6617 18.5801L16.877 17.3648L15.5991 16.0869C15.8981 15.6361 16.1145 15.126 16.2261 14.5781H18.0312V12.8594H16.2261C16.1145 12.3115 15.8981 11.8014 15.5991 11.3506ZM12.0156 16.2969C10.594 16.2969 9.4375 15.1403 9.4375 13.7188C9.4375 12.2972 10.594 11.1406 12.0156 11.1406C13.4372 11.1406 14.5938 12.2972 14.5938 13.7188C14.5938 15.1403 13.4372 16.2969 12.0156 16.2969Z" fill="#4A4895"/>
<path d="M12.0156 14.5781C12.4902 14.5781 12.875 14.1934 12.875 13.7188C12.875 13.2441 12.4902 12.8594 12.0156 12.8594C11.541 12.8594 11.1562 13.2441 11.1562 13.7188C11.1562 14.1934 11.541 14.5781 12.0156 14.5781Z" fill="#4A4895"/>
</svg>
