<svg width="24" height="24" viewBox="0 0 24 24" fill="none" xmlns="http://www.w3.org/2000/svg">
<path d="M2 6.31998L10.03 1.79998C10.4609 1.55913 10.9463 1.43268 11.44 1.43268C11.9337 1.43268 12.4191 1.55913 12.85 1.79998L16.27 3.67998L21.1 6.33998V15.24C21.0941 15.7637 20.947 16.276 20.6742 16.7231C20.4014 17.1701 20.013 17.5353 19.55 17.78L11.42 22.17L3.55 17.79C3.09553 17.537 2.71686 17.1673 2.45315 16.719C2.18944 16.2707 2.05026 15.7601 2.05 15.24L2 6.31998Z" fill="white"/>
<path fill-rule="evenodd" clip-rule="evenodd" d="M12.74 2.52999C12.3502 2.29647 11.9044 2.17313 11.45 2.17313C10.9956 2.17313 10.5498 2.29647 10.16 2.52999L3.72 6.41999L7.02 8.41999L14.83 3.72999L12.74 2.52999ZM15.98 4.43999L8.15 9.14999L11.45 11.15L19.36 6.38999L15.98 4.43999ZM19.93 7.43999L12.03 12.18V21.28L18.65 17.46C19.0388 17.2367 19.3619 16.9148 19.5866 16.5268C19.8113 16.1388 19.9298 15.6984 19.93 15.25V7.43999ZM10.86 21.29V12.2L3.17 7.46999V15.29C3.16994 15.7347 3.28619 16.1718 3.50722 16.5577C3.72825 16.9436 4.04637 17.265 4.43 17.49L10.86 21.29ZM9.55 1.52999C10.1196 1.189 10.7711 1.00891 11.435 1.00891C12.0989 1.00891 12.7504 1.189 13.32 1.52999L21.09 6.09999V15.29C21.0912 15.9469 20.9189 16.5924 20.5905 17.1614C20.2622 17.7303 19.7894 18.2024 19.22 18.53L11.44 23L3.84 18.51C3.2798 18.1796 2.81545 17.7088 2.49277 17.1441C2.17009 16.5794 2.00025 15.9404 2 15.29V6.07999L9.55 1.52999Z" fill="white"/>
<path fill-rule="evenodd" clip-rule="evenodd" d="M7.75003 9.04997L16.55 3.38997L15.31 2.65997L6.67003 8.36997L2.55003 5.76997L2.03003 6.07997V6.59997L11.11 12.37V22.79L11.47 23L12.11 22.63V12.37L21.11 6.59997V6.07997L20.55 5.77997L11.55 11.45L7.75003 9.04997Z" fill="#4A4895"/>
</svg>
