<svg width="24" height="24" viewBox="0 0 24 24" fill="none" xmlns="http://www.w3.org/2000/svg">
<path fill-rule="evenodd" clip-rule="evenodd" d="M12.6821 2.52766C11.8894 2.05898 10.9083 2.06417 10.1205 2.54119L3.70777 6.42435L6.99104 8.45306L14.7608 3.75677L12.6821 2.52766ZM15.9093 4.43592L8.11462 9.14732L11.3974 11.1757L19.2723 6.42438L15.9093 4.43592ZM19.8367 7.45655L11.9755 12.1997V21.3025L18.5663 17.4849C19.3519 17.0299 19.8367 16.1828 19.8367 15.2653V7.45655ZM10.8122 21.2903V12.1956L3.16327 7.46937V15.2869C3.16327 16.195 3.6383 17.0349 4.41119 17.4934L10.8122 21.2903ZM9.52417 1.52826C10.6755 0.831068 12.1095 0.82349 13.268 1.50847L21 6.08035V15.2653C21 16.6063 20.2914 17.8443 19.1432 18.5094L11.3904 23L3.82389 18.5117C2.69428 17.8417 2 16.6141 2 15.2869V6.08442L9.52417 1.52826Z" fill="#C3D6EC"/>
</svg>
