<svg width="24" height="24" viewBox="0 0 24 24" fill="none" xmlns="http://www.w3.org/2000/svg">
<path fill-rule="evenodd" clip-rule="evenodd" d="M3.91003 2.04999V22.22L20.36 21.94L19.84 7.02999L18.1 4.69999L14.43 1.60999L3.91003 2.04999Z" fill="white"/>
<path fill-rule="evenodd" clip-rule="evenodd" d="M3 2.50001C3.00261 2.3004 3.04451 2.10325 3.12332 1.91983C3.20213 1.73642 3.3163 1.57032 3.4593 1.43103C3.60231 1.29174 3.77135 1.18198 3.95678 1.10803C4.14221 1.03407 4.34039 0.997367 4.54 1.00001H14.91L20.82 6.85001V21.5C20.8174 21.6996 20.7755 21.8968 20.6967 22.0802C20.6179 22.2636 20.5037 22.4297 20.3607 22.569C20.2177 22.7083 20.0487 22.818 19.8632 22.892C19.6778 22.966 19.4796 23.0027 19.28 23H4.54C4.34039 23.0027 4.14221 22.966 3.95678 22.892C3.77135 22.818 3.60231 22.7083 3.4593 22.569C3.3163 22.4297 3.20213 22.2636 3.12332 22.0802C3.04451 21.8968 3.00261 21.6996 3 21.5V2.50001ZM4.54 2.42001C4.51878 2.42001 4.49844 2.42844 4.48343 2.44344C4.46843 2.45845 4.46 2.47879 4.46 2.50001V21.5C4.46 21.5212 4.46843 21.5416 4.48343 21.5566C4.49844 21.5716 4.51878 21.58 4.54 21.58H19.28C19.3022 21.5801 19.3237 21.5721 19.3404 21.5573C19.357 21.5425 19.3675 21.5221 19.37 21.5V7.86001H15.37C15.1704 7.86266 14.9722 7.82595 14.7868 7.752C14.6014 7.67804 14.4323 7.56829 14.2893 7.429C14.1463 7.2897 14.0321 7.12361 13.9533 6.94019C13.8745 6.75677 13.8326 6.55963 13.83 6.36001V2.42001H4.54ZM15.33 3.42001L18.33 6.42001H15.39C15.3704 6.42017 15.3514 6.41312 15.3367 6.40022C15.3219 6.38732 15.3125 6.36945 15.31 6.35001L15.33 3.42001Z" fill="white"/>
<path fill-rule="evenodd" clip-rule="evenodd" d="M13.85 6.36V1H14.91L15.33 1.42V6.26C15.33 6.37 15.33 6.43 15.48 6.43H20.37L20.82 6.86V7.86H15.5C15.2914 7.87792 15.0813 7.85255 14.883 7.78548C14.6847 7.71842 14.5024 7.61111 14.3474 7.47028C14.1925 7.32945 14.0684 7.15814 13.9828 6.96709C13.8972 6.77603 13.852 6.56935 13.85 6.36Z" fill="#4A4895"/>
<path d="M16.7304 11H7.64453C7.28853 11 7 11.2885 7 11.6445C7 12.0005 7.28853 12.2891 7.64453 12.2891H16.7304C17.0864 12.2891 17.3749 12.0005 17.3749 11.6445C17.3749 11.2885 17.0864 11 16.7304 11Z" fill="#4A4895"/>
<path d="M7.64453 14.8672H15.0529C15.409 14.8672 15.6975 14.5787 15.6975 14.2227C15.6975 13.8667 15.409 13.5781 15.0529 13.5781H7.64453C7.28853 13.5781 7 13.8667 7 14.2227C7 14.5787 7.28853 14.8672 7.64453 14.8672Z" fill="#4A4895"/>
<path d="M15.9467 16.1562H7.64453C7.28853 16.1562 7 16.4448 7 16.8008C7 17.1568 7.28853 17.4453 7.64453 17.4453H15.9467C16.3026 17.4453 16.5913 17.1568 16.5913 16.8008C16.5913 16.4448 16.3026 16.1562 15.9467 16.1562Z" fill="#4A4895"/>
</svg>
