<svg width="24" height="24" viewBox="0 0 24 24" fill="none" xmlns="http://www.w3.org/2000/svg">
<path fill-rule="evenodd" clip-rule="evenodd" d="M3 2.5036C3 1.67318 3.68831 1 4.53738 1H14.903L20.8193 6.85398V21.4964C20.8193 22.3268 20.131 23 19.2819 23H4.53738C3.68831 23 3 22.3268 3 21.4964V2.5036ZM4.53738 2.42446C4.4927 2.42446 4.45647 2.45989 4.45647 2.5036V21.4964C4.45647 21.5401 4.4927 21.5755 4.53738 21.5755H19.2819C19.3266 21.5755 19.3628 21.5401 19.3628 21.4964V7.8588H15.408C14.559 7.8588 13.8707 7.18562 13.8707 6.35521V2.42446H4.53738ZM15.3271 3.44596L18.3473 6.43434H15.408C15.3634 6.43434 15.3271 6.39891 15.3271 6.35521V3.44596Z" fill="#C3D6EC"/>
<path d="M16.381 11H7.29517C6.93916 11 6.65063 11.2885 6.65063 11.6445C6.65063 12.0005 6.93916 12.2891 7.29517 12.2891H16.381C16.737 12.2891 17.0256 12.0005 17.0256 11.6445C17.0256 11.2885 16.737 11 16.381 11Z" fill="#C3D6EC"/>
<path d="M7.29517 14.8672H14.7036C15.0596 14.8672 15.3481 14.5787 15.3481 14.2227C15.3481 13.8667 15.0596 13.5781 14.7036 13.5781H7.29517C6.93916 13.5781 6.65063 13.8667 6.65063 14.2227C6.65063 14.5787 6.93916 14.8672 7.29517 14.8672Z" fill="#C3D6EC"/>
<path d="M15.5974 16.1562H7.29517C6.93916 16.1562 6.65063 16.4448 6.65063 16.8008C6.65063 17.1568 6.93916 17.4453 7.29517 17.4453H15.5974C15.9532 17.4453 16.2419 17.1568 16.2419 16.8008C16.2419 16.4448 15.9532 16.1562 15.5974 16.1562Z" fill="#C3D6EC"/>
</svg>
