<svg width="24" height="24" viewBox="0 0 24 24" fill="none" xmlns="http://www.w3.org/2000/svg">
<path d="M9.5 3.5L8 4.5L6 3.5L3.5 5.5L4.5 7.5L4 9L2 10L1.5 13.5L3.5 14.5L4.5 16L3.5 18L6 20.5L8 19.5L9.5 20.5L10 22L14 22.5V20.5L16 19.5L18 20.5L20.5 18L19.5 16.5L20 14.5L22.5 13.5L22 10.5L20.5 10L19.5 8L20.5 6L18 3.5L16.5 4.5L15 4L14 2H10.5L9.5 3.5Z" fill="white"/>
<path fill-rule="evenodd" clip-rule="evenodd" d="M9.58671 1H14.3999L14.9722 3.14294L16.1446 3.65633L18.1015 2.51813L21.4526 5.88463L20.2619 7.80886L20.7756 9.0534L23 9.57309V14.3539L20.7887 14.9738L20.3103 16.1754L21.5074 18.0055L18.1013 21.4895L16.1796 20.3416L14.9326 20.861L14.4133 23H9.58671L9.06738 20.861L7.82561 20.3437L5.95548 21.4918L2.48963 18.01L3.68424 16.1838L3.16855 14.9648L1 14.2905V9.62354L3.17258 9.10387L3.69301 7.81216L2.50031 5.88463L5.85137 2.51813L7.81551 3.6605L9.06738 3.13904L9.58671 1ZM10.7399 2.46667L10.3173 4.2072L7.70743 5.29434L6.09236 4.35499L4.35718 6.09817L5.33084 7.67171L4.25005 10.3542L2.46667 10.7808V13.2106L4.25408 13.7664L5.33962 16.3324L4.36786 17.8179L6.17663 19.635L7.69733 18.7015L10.3173 19.7928L10.7399 21.5333H13.2601L13.6827 19.7928L16.2975 18.7036L17.8608 19.6374L19.6351 17.8225L18.6658 16.3407L19.6944 13.7574L21.5333 13.2418V10.7366L19.7076 10.31L18.62 7.67501L19.5957 6.09817L17.8605 4.35499L16.2383 5.29851L13.7373 4.2033L13.2735 2.46667H10.7399Z" fill="white"/>
<path d="M12 16C14.2091 16 16 14.2091 16 12C16 9.79086 14.2091 8 12 8C9.79086 8 8 9.79086 8 12C8 14.2091 9.79086 16 12 16Z" fill="#4A4895"/>
</svg>
