<svg width="24" height="24" viewBox="0 0 24 24" fill="none" xmlns="http://www.w3.org/2000/svg">
<path fill-rule="evenodd" clip-rule="evenodd" d="M15 8.73421C16.5101 8.73421 17.7342 7.51006 17.7342 6C17.7342 4.48994 16.5101 3.26579 15 3.26579C13.4899 3.26579 12.2658 4.48994 12.2658 6C12.2658 7.51006 13.4899 8.73421 15 8.73421ZM15 10C17.2091 10 19 8.20914 19 6C19 3.79086 17.2091 2 15 2C12.7909 2 11 3.79086 11 6C11 8.20914 12.7909 10 15 10Z" fill="#C3D6EC"/>
<path fill-rule="evenodd" clip-rule="evenodd" d="M14.8696 13.0087C10.6714 13.0087 8.04552 16.7032 8.04552 21H6.65222C6.65222 16.1529 9.67046 11.5217 14.8696 11.5217C20.0688 11.5217 23 16.1529 23 21H21.6067C21.6067 16.7032 19.0678 13.0087 14.8696 13.0087Z" fill="#C3D6EC"/>
<path fill-rule="evenodd" clip-rule="evenodd" d="M7 10.6404C7.90599 10.6404 8.64043 9.90599 8.64043 9C8.64043 8.09401 7.90599 7.35957 7 7.35957C6.09401 7.35957 5.35957 8.09401 5.35957 9C5.35957 9.90599 6.09401 10.6404 7 10.6404ZM7 12C8.65685 12 10 10.6569 10 9C10 7.34315 8.65685 6 7 6C5.34315 6 4 7.34315 4 9C4 10.6569 5.34315 12 7 12Z" fill="#C3D6EC"/>
<path fill-rule="evenodd" clip-rule="evenodd" d="M6.68304 14.8671C7.5183 14.8671 8.29973 15.1054 8.97586 15.5212L9.60864 14.1841C8.74131 13.6507 7.74283 13.3478 6.68304 13.3478C4.94659 13.3478 3.51363 14.4246 2.53843 15.8767C1.56608 17.3246 0.999947 19.2094 0.999947 21H2.33264C2.33264 19.5499 2.79871 17.9884 3.59664 16.8002C4.39172 15.6163 5.46713 14.8671 6.68304 14.8671Z" fill="#C3D6EC"/>
</svg>
