<svg width="20" height="20" viewBox="0 0 20 20" fill="none" xmlns="http://www.w3.org/2000/svg">
<path fill-rule="evenodd" clip-rule="evenodd" d="M14.1276 1H5.87244C3.18573 1 1 3.18573 1 5.87244V14.1277C1 16.8143 3.18573 19 5.87244 19H14.1277C16.8143 19 19 16.8143 19 14.1277V5.87244C19 3.18573 16.8143 1 14.1276 1ZM15 6C15.5523 6 16 5.55228 16 5C16 4.44772 15.5523 4 15 4C14.4477 4 14 4.44772 14 5C14 5.55228 14.4477 6 15 6ZM10 13.5C11.933 13.5 13.5 11.933 13.5 10C13.5 8.067 11.933 6.5 10 6.5C8.067 6.5 6.5 8.067 6.5 10C6.5 11.933 8.067 13.5 10 13.5Z" fill="#000E4B"/>
</svg>
