<svg width="20" height="20" viewBox="0 0 20 20" fill="none" xmlns="http://www.w3.org/2000/svg">
<path d="M6.27779 19H2.5V5.45889H6.27779V19Z" fill="#000E4B"/>
<path d="M19.5 19H15.7222V10.6278C15.7222 9.64696 15.4483 8.96029 14.2715 8.96029C12.3203 8.96029 11.9444 10.6278 11.9444 10.6278V19H8.16665V5.45889H11.9444V6.75302C12.4846 6.3294 13.8333 5.4608 15.7222 5.4608C16.9462 5.4608 19.5 6.21136 19.5 10.7457V19Z" fill="#000E4B"/>
<path d="M4.50599 4.62904C3.52754 4.62904 2.73612 3.81656 2.73612 2.81452C2.73612 1.81248 3.52946 1 4.50599 1C5.48444 1.00191 6.27779 1.81439 6.27779 2.81452C6.27779 3.81656 5.48444 4.62904 4.50599 4.62904Z" fill="#000E4B"/>
</svg>
