<svg width="20" height="20" viewBox="0 0 20 20" fill="none" xmlns="http://www.w3.org/2000/svg">
<path fill-rule="evenodd" clip-rule="evenodd" d="M14.0208 18.9997C13.169 18.9997 12.3679 18.7881 11.6673 18.4171C11.1579 18.5102 10.6325 18.5594 10.0951 18.5594C5.35394 18.5594 1.50999 14.7693 1.50999 10.0941C1.50999 9.51089 1.57009 8.94169 1.68399 8.39192C1.2497 7.66301 0.999542 6.81491 0.999542 5.90888C0.999542 3.19783 3.22862 0.999727 5.97829 0.999727C6.95237 0.999727 7.85973 1.27629 8.62733 1.75308C9.10459 1.67205 9.59513 1.62919 10.0951 1.62919C14.837 1.62919 18.6806 5.41937 18.6806 10.0941C18.6806 10.7176 18.6114 11.3253 18.4821 11.9106C18.813 12.5675 18.9995 13.3078 18.9995 14.0912C18.9992 16.8013 16.7705 18.9997 14.0208 18.9997ZM12.313 9.09035C12.8846 9.27082 13.379 9.49348 13.7822 9.75196C14.1934 10.0158 14.519 10.355 14.75 10.7588C14.982 11.1649 15.0993 11.6665 15.0993 12.2497C15.0993 12.9468 14.8971 13.5823 14.4984 14.1391C14.1012 14.6929 13.5145 15.1319 12.7543 15.4436C12.001 15.752 11.0982 15.9087 10.0713 15.9087C8.83836 15.9087 7.80453 15.695 6.99745 15.2728C6.42061 14.9658 5.9451 14.5496 5.58383 14.036C5.21907 13.5177 5.03425 13.0027 5.03425 12.5065C5.03425 12.1965 5.15478 11.9276 5.39237 11.7073C5.6275 11.4893 5.92902 11.3789 6.28854 11.3789C6.58307 11.3789 6.83778 11.4659 7.04461 11.6383C7.24236 11.8034 7.41147 12.0482 7.54773 12.3632C7.69971 12.7071 7.86602 12.9967 8.04106 13.2257C8.20946 13.4457 8.45194 13.6299 8.76115 13.7745C9.07245 13.9195 9.49171 13.9935 10.0081 13.9935C10.7177 13.9935 11.2994 13.8438 11.7372 13.5492C12.1645 13.2612 12.3727 12.916 12.3727 12.4931C12.3727 12.1587 12.2641 11.8965 12.0412 11.6902C11.8074 11.475 11.4986 11.3075 11.1251 11.1924C10.7348 11.0722 10.2048 10.9429 9.54971 10.808C8.65843 10.6198 7.90166 10.3962 7.29967 10.144C6.68405 9.88589 6.18792 9.52763 5.82456 9.0793C5.45596 8.62529 5.26903 8.05408 5.26903 7.38343C5.26903 6.74392 5.46504 6.16736 5.85216 5.67015C6.23613 5.17663 6.79655 4.79259 7.51838 4.52942C8.23113 4.26993 9.07874 4.13801 10.0378 4.13801C10.804 4.13801 11.4787 4.2254 12.0412 4.39783C12.6072 4.5716 13.0844 4.80631 13.459 5.09526C13.8367 5.38589 14.1172 5.69727 14.294 6.02004C14.4719 6.34649 14.5623 6.67194 14.5623 6.986C14.5623 7.28868 14.4439 7.56323 14.2102 7.80296C13.975 8.04404 13.678 8.16625 13.3287 8.16625C13.0107 8.16625 12.7616 8.0889 12.5887 7.93857C12.4279 7.79861 12.2609 7.58031 12.0765 7.26625C11.8623 6.86446 11.603 6.54872 11.3061 6.32607C11.0175 6.10944 10.5353 5.99962 9.87254 5.99962C9.25727 5.99962 8.7566 6.12116 8.38521 6.36156C8.02709 6.59325 7.85309 6.85877 7.85309 7.17316C7.85309 7.36602 7.90899 7.52707 8.02429 7.66602C8.14623 7.81301 8.31847 7.94192 8.53614 8.04906C8.76184 8.16156 8.99418 8.24995 9.22723 8.3139C9.46551 8.37852 9.8659 8.47529 10.4151 8.60084C11.1101 8.7475 11.7484 8.91223 12.313 9.09035Z" fill="#000E4B"/>
</svg>
