<svg width="20" height="20" viewBox="0 0 20 20" fill="none" xmlns="http://www.w3.org/2000/svg">
<g clip-path="url(#clip0_36_189)">
<path d="M19.5568 4.94088L19.5818 5.10421C19.3401 4.24671 18.6876 3.58505 17.8585 3.34421L17.841 3.34005C16.2818 2.91671 10.0076 2.91671 10.0076 2.91671C10.0076 2.91671 3.7493 2.90838 2.1743 3.34005C1.3293 3.58505 0.675966 4.24671 0.438466 5.08671L0.434299 5.10421C-0.148201 8.14671 -0.152368 11.8025 0.460132 15.06L0.434299 14.895C0.675966 15.7525 1.32847 16.4142 2.15763 16.655L2.17513 16.6592C3.73263 17.0834 10.0085 17.0834 10.0085 17.0834C10.0085 17.0834 16.266 17.0834 17.8418 16.6592C18.6876 16.4142 19.341 15.7525 19.5785 14.9125L19.5826 14.895C19.8476 13.48 19.9993 11.8517 19.9993 10.1884C19.9993 10.1275 19.9993 10.0659 19.9985 10.0042C19.9993 9.94755 19.9993 9.88004 19.9993 9.81254C19.9993 8.14838 19.8476 6.52005 19.5568 4.94088ZM8.00597 13.0425V6.96505L13.2276 10.0084L8.00597 13.0425Z" fill="#000E4B"/>
</g>
<defs>
<clipPath id="clip0_36_189">
<rect width="20" height="20" fill="white"/>
</clipPath>
</defs>
</svg>
