<svg width="42" height="42" viewBox="0 0 42 42" fill="none" xmlns="http://www.w3.org/2000/svg">
<rect width="42" height="42" rx="10" fill="#6772E4"/>
<path d="M21.626 33.231C18.92 33.231 16.698 32.593 14.96 31.317C13.222 30.019 12.287 28.171 12.155 25.773H19.052C19.118 26.587 19.36 27.181 19.778 27.555C20.196 27.929 20.735 28.116 21.395 28.116C21.989 28.116 22.473 27.973 22.847 27.687C23.243 27.379 23.441 26.961 23.441 26.433C23.441 25.751 23.122 25.223 22.484 24.849C21.846 24.475 20.812 24.057 19.382 23.595C17.864 23.089 16.632 22.605 15.686 22.143C14.762 21.659 13.948 20.966 13.244 20.064C12.562 19.14 12.221 17.941 12.221 16.467C12.221 14.971 12.595 13.695 13.343 12.639C14.091 11.561 15.125 10.747 16.445 10.197C17.765 9.647 19.261 9.372 20.933 9.372C23.639 9.372 25.795 10.01 27.401 11.286C29.029 12.54 29.898 14.311 30.008 16.599H22.979C22.957 15.895 22.737 15.367 22.319 15.015C21.923 14.663 21.406 14.487 20.768 14.487C20.284 14.487 19.888 14.63 19.58 14.916C19.272 15.202 19.118 15.609 19.118 16.137C19.118 16.577 19.283 16.962 19.613 17.292C19.965 17.6 20.394 17.875 20.9 18.117C21.406 18.337 22.154 18.623 23.144 18.975C24.618 19.481 25.828 19.987 26.774 20.493C27.742 20.977 28.567 21.67 29.249 22.572C29.953 23.452 30.305 24.574 30.305 25.938C30.305 27.324 29.953 28.567 29.249 29.667C28.567 30.767 27.566 31.636 26.246 32.274C24.948 32.912 23.408 33.231 21.626 33.231Z" fill="white"/>
</svg>
